<?xml version="1.0" encoding="utf-8"?>
<!-- Generator: Adobe Illustrator 17.0.2, SVG Export Plug-In . SVG Version: 6.00 Build 0)  -->
<!DOCTYPE svg PUBLIC "-//W3C//DTD SVG 1.1//EN" "http://www.w3.org/Graphics/SVG/1.1/DTD/svg11.dtd">
<svg version="1.1" id="Calque_1" xmlns="http://www.w3.org/2000/svg" xmlns:xlink="http://www.w3.org/1999/xlink" x="0px" y="0px"
	 width="259.587px" height="31.936px" viewBox="0 0 259.587 31.936" enable-background="new 0 0 259.587 31.936"
	 xml:space="preserve">
<g>
	<path fill="#F7F2EA" d="M4.89,1.074v29.967H0.603V1.074H4.89z M11.549,14.965L22.011,1.074h5.444L16.008,15.95l12.647,15.091
		h-5.659l-11.447-13.89V14.965z"/>
	<path fill="#F7F2EA" stroke="#F7F2EA" stroke-miterlimit="10" d="M69.805,20.966H54.628l-4.073,10.075h-0.729L61.874,0.603h0.729
		l12.046,30.438H73.92L69.805,20.966z M54.929,20.323h14.619l-7.331-18.82L54.929,20.323z"/>
	<path fill="#F7F2EA" stroke="#F7F2EA" stroke-miterlimit="10" d="M97.664,1.074h21.178l0.428,0.772L97.579,30.398H119.4v0.643
		c-7.417,0-14.877,0-22.293,0l-0.385-0.6L118.499,1.76H97.664V1.074z"/>
	<path fill="#F7F2EA" stroke="#F7F2EA" stroke-miterlimit="10" d="M145.416,5.147c2.744-2.829,6.603-4.544,10.804-4.544
		c4.244,0,8.06,1.714,10.847,4.544c2.744,2.787,4.502,6.645,4.502,10.889s-1.758,8.103-4.502,10.889
		c-2.787,2.829-6.602,4.545-10.847,4.545c-4.201,0-8.06-1.715-10.804-4.545c-2.744-2.787-4.501-6.645-4.501-10.889
		S142.672,7.933,145.416,5.147z M166.594,5.661c-2.658-2.701-6.345-4.372-10.375-4.372s-7.674,1.672-10.332,4.372
		c-2.615,2.658-4.287,6.302-4.287,10.375s1.672,7.717,4.287,10.375c2.658,2.701,6.302,4.373,10.332,4.373s7.717-1.673,10.375-4.373
		c2.615-2.658,4.244-6.302,4.244-10.375S169.209,8.319,166.594,5.661z"/>
	<path fill="#F7F2EA" stroke="#F7F2EA" stroke-miterlimit="10" d="M196.768,1.074v29.967h-0.643V1.074H196.768z M197.753,15.694
		l15.648-14.62h0.857l-15.905,14.919l16.634,15.048h-0.986l-16.248-14.662V15.694z"/>
	<path fill="#F7F2EA" stroke="#F7F2EA" stroke-miterlimit="10" d="M238.131,22.895V1.074h0.686v21.864
		c0,5.188,5.231,7.759,9.817,7.759c4.587,0,9.818-2.572,9.818-7.802V1.074h0.686v21.864c0,5.53-5.573,8.446-10.504,8.446
		C243.662,31.384,238.131,28.468,238.131,22.895z"/>
</g>
</svg>
