<?xml version="1.0" encoding="utf-8"?>
<!-- Generator: Adobe Illustrator 17.0.2, SVG Export Plug-In . SVG Version: 6.00 Build 0)  -->
<!DOCTYPE svg PUBLIC "-//W3C//DTD SVG 1.1//EN" "http://www.w3.org/Graphics/SVG/1.1/DTD/svg11.dtd">
<svg version="1.1" id="Calque_1" xmlns="http://www.w3.org/2000/svg" xmlns:xlink="http://www.w3.org/1999/xlink" x="0px" y="0px"
	 width="260.661px" height="247.503px" viewBox="0 0 260.661 247.503" enable-background="new 0 0 260.661 247.503"
	 xml:space="preserve">
<rect x="0" y="5.682" fill="#412F3F" width="74.842" height="235.113"/>
<polygon fill="#412F3F" points="257.695,44.866 212.111,44.866 160.11,44.866 124.101,80.875 96.495,107.115 96.495,132.415 
	124.101,159.599 212.006,247.503 260.661,198.848 183.045,119.75 "/>
<polygon fill="#DAC8AD" points="162.818,38.805 260.661,38.805 258.473,28.582 245.963,26.341 183.027,32.573 "/>
<polygon fill="#DAC8AD" points="258.473,28.582 200.119,38.805 183.823,38.805 215.135,0 246.968,7.083 "/>
<polygon fill="#DAC8AD" points="200.991,38.805 162.818,38.805 171.643,29.98 215.135,0 223.202,21.154 "/>
<polygon fill="#DAC8AD" points="194.092,14.506 223.202,21.154 237.716,35.027 200.991,38.805 162.818,38.805 170.968,24.917 "/>
</svg>
