<?xml version="1.0" encoding="utf-8"?>
<!-- Generator: Adobe Illustrator 17.0.2, SVG Export Plug-In . SVG Version: 6.00 Build 0)  -->
<!DOCTYPE svg PUBLIC "-//W3C//DTD SVG 1.1//EN" "http://www.w3.org/Graphics/SVG/1.1/DTD/svg11.dtd">
<svg version="1.1" id="Calque_1" xmlns="http://www.w3.org/2000/svg" xmlns:xlink="http://www.w3.org/1999/xlink" x="0px" y="0px"
	 width="61.551px" height="61.555px" viewBox="0 0 61.551 61.555" enable-background="new 0 0 61.551 61.555" xml:space="preserve">
<path fill="#412F3F" stroke="#412F3F" stroke-linejoin="bevel" stroke-miterlimit="10" d="M61.551,36.417v-11.28l-6.895-1.156
	c-0.529-1.86-1.266-3.631-2.189-5.286l4.059-5.693L48.55,5.027l-5.694,4.059c-1.653-0.924-3.424-1.661-5.285-2.189L36.415,0H25.136
	L23.98,6.897c-1.86,0.528-3.63,1.264-5.284,2.188l-5.695-4.059l-7.976,7.976l4.059,5.693c-0.923,1.655-1.66,3.426-2.19,5.287
	L0,25.137v11.28l6.895,1.156c0.529,1.861,1.266,3.631,2.189,5.286l-4.059,5.693l7.977,7.977l5.693-4.059
	c1.654,0.924,3.425,1.661,5.285,2.189l1.156,6.897h11.281l1.156-6.897c1.86-0.527,3.63-1.264,5.284-2.187l5.694,4.059l7.977-7.977
	l-4.059-5.692c0.924-1.656,1.661-3.426,2.19-5.287L61.551,36.417z M30.776,45.741c-8.264,0-14.967-6.701-14.967-14.965
	s6.703-14.965,14.967-14.965s14.967,6.701,14.967,14.965S39.04,45.741,30.776,45.741z"/>
</svg>
