<?xml version="1.0" encoding="utf-8"?>
<!-- Generator: Adobe Illustrator 17.0.2, SVG Export Plug-In . SVG Version: 6.00 Build 0)  -->
<!DOCTYPE svg PUBLIC "-//W3C//DTD SVG 1.1//EN" "http://www.w3.org/Graphics/SVG/1.1/DTD/svg11.dtd">
<svg version="1.1" id="Calque_1" xmlns="http://www.w3.org/2000/svg" xmlns:xlink="http://www.w3.org/1999/xlink" x="0px" y="0px"
	 width="61.551px" height="61.555px" viewBox="0 0 61.551 61.555" enable-background="new 0 0 61.551 61.555" xml:space="preserve">
<path fill="#412F3F" stroke="#412F3F" stroke-width="1.3009" stroke-linejoin="bevel" stroke-miterlimit="10" d="M32.802,46.532
	c0,1.119-0.907,2.027-2.027,2.027l0,0c-1.119,0-2.027-0.907-2.027-2.027V13.835c0-1.119,0.907-2.027,2.027-2.027l0,0
	c1.119,0,2.027,0.907,2.027,2.027V46.532z"/>
<path fill="#412F3F" stroke="#412F3F" stroke-width="1.3009" stroke-linejoin="bevel" stroke-miterlimit="10" d="M47.124,28.821
	c1.119,0,2.027,0.907,2.027,2.027l0,0c0,1.119-0.907,2.027-2.027,2.027H14.427c-1.119,0-2.027-0.907-2.027-2.027l0,0
	c0-1.119,0.907-2.027,2.027-2.027H47.124z"/>
</svg>
