<?xml version="1.0" encoding="utf-8"?>
<!-- Generator: Adobe Illustrator 17.0.2, SVG Export Plug-In . SVG Version: 6.00 Build 0)  -->
<!DOCTYPE svg PUBLIC "-//W3C//DTD SVG 1.1//EN" "http://www.w3.org/Graphics/SVG/1.1/DTD/svg11.dtd">
<svg version="1.1" id="Calque_1" xmlns="http://www.w3.org/2000/svg" xmlns:xlink="http://www.w3.org/1999/xlink" x="0px" y="0px"
	 width="71.277px" height="57.976px" viewBox="0 0 71.277 57.976" enable-background="new 0 0 71.277 57.976" xml:space="preserve">
<g>
	<path fill="#412F3F" d="M68.042,57.976H10.963l-0.355-0.159l-2.942-3.305l-0.121-0.316V9.266l0.094-0.283l2.685-3.618l0.382-0.192
		h56.748l0.361,0.165l3.347,3.886l0.115,0.311v44.571l-0.106,0.3L68.412,57.8L68.042,57.976z M11.177,57.024h56.639l2.509-3.089
		V9.71l-3.089-3.587h-56.29l-2.448,3.3v44.591L11.177,57.024z"/>
</g>
<g>
	<g>
		<polyline fill="#412F3F" points="9.698,0.5 3.275,0.5 0.5,4.117 0.5,49.047 3.54,52.351 8.022,52.351 8.022,9.266 10.796,5.648 
			65.379,5.647 65.379,4.385 61.92,0.5 9.698,0.5 		"/>
		<path fill="#412F3F" d="M8.021,52.852H3.54L3.172,52.69l-3.04-3.305L0,49.047V4.117l0.104-0.305l2.775-3.617L3.275,0H61.92
			l0.374,0.168l3.458,3.885l0.126,0.332v1.263l-0.5,0.5H11.043L8.521,9.436v42.916L8.021,52.852z M3.759,51.852h3.762V9.266
			l0.103-0.305l2.775-3.618l0.397-0.195h54.083V4.575L61.696,1H3.521L1,4.287v44.564L3.759,51.852z"/>
	</g>
</g>
<g>
	<polygon fill="#412F3F" points="31.632,20.121 49.732,16.782 49.732,38.834 48.586,41.435 45.696,43.07 41.593,42.583 
		39.784,39.562 41.236,36.674 44.833,35.18 47.257,35.512 47.257,25.162 34.019,27.682 34.019,41.598 32.814,44.733 30.007,46.283 
		26.242,45.972 24.184,43.604 25.419,40.007 28.723,38.439 31.626,38.746 	"/>
	<path fill="#412F3F" d="M29.966,46.78l-3.765-0.311l-0.336-0.17l-2.058-2.368l-0.096-0.49l1.235-3.597l0.258-0.29l3.304-1.568
		l0.267-0.045l2.351,0.249l0.006-18.069l0.409-0.492l18.1-3.34l0.591,0.492l-0.042,22.254l-1.146,2.601l-0.211,0.234l-2.89,1.635
		l-0.305,0.061l-4.103-0.486l-0.37-0.239l-1.809-3.021l-0.018-0.481l1.452-2.888l0.255-0.237l3.598-1.494l0.26-0.033l1.856,0.254
		v-9.172l-12.239,2.329l-0.033,13.683l-1.205,3.134l-0.225,0.258l-2.807,1.55L29.966,46.78z M26.486,45.49l3.412,0.281l2.515-1.389
		l1.106-2.877V27.682l0.407-0.491l13.239-2.52l0.593,0.491v10.35l-0.568,0.495l-2.29-0.313l-3.301,1.371l-1.245,2.477l1.542,2.574
		l3.697,0.438l2.603-1.473l1.037-2.353V17.382l-17.1,3.155l-0.006,18.209l-0.553,0.497L28.81,38.95l-2.987,1.418l-1.073,3.125
		L26.486,45.49z"/>
</g>
</svg>
