<?xml version="1.0" encoding="utf-8"?>
<!-- Generator: Adobe Illustrator 17.0.2, SVG Export Plug-In . SVG Version: 6.00 Build 0)  -->
<!DOCTYPE svg PUBLIC "-//W3C//DTD SVG 1.1//EN" "http://www.w3.org/Graphics/SVG/1.1/DTD/svg11.dtd">
<svg version="1.1" id="Calque_1" xmlns="http://www.w3.org/2000/svg" xmlns:xlink="http://www.w3.org/1999/xlink" x="0px" y="0px"
	 width="81.824px" height="50.621px" viewBox="0 0 81.824 50.621" enable-background="new 0 0 81.824 50.621" xml:space="preserve">
<g>
	<path fill="#412F3F" d="M79.063,47.113l-8.722-4.361l-0.276-0.447v-2.19H54.427l-0.5-0.5V23.476l0.5-0.5h15.639v-2.44l0.287-0.452
		l8.62-4.06l0.523,0.061l2.139,1.696l0.189,0.392v27.375l-0.26,0.438l-2.037,1.119L79.063,47.113z M71.065,41.996l8.211,4.105
		l1.548-0.85V18.414l-1.706-1.353l-8.053,3.793v2.623l-0.5,0.5H54.927v15.139l16.139,0.026V41.996z"/>
</g>
<g>
	<path fill="#412F3F" d="M50.367,50.621H4.991L4.64,50.476l-4.491-4.452L0,45.668V6.463l0.138-0.345l4.152-4.36l0.362-0.155H28.64v1
		H4.866L1,6.664V45.46l4.197,4.161h44.962l3.638-3.658V17.008l-4.186-3.965l-17.017-0.034l-0.499-0.501l0.016-5.164l1,0.003
		l-0.014,4.663l16.714,0.034l0.343,0.137l4.486,4.25l0.156,0.363v29.375l-0.146,0.353l-3.93,3.952L50.367,50.621z M40.848,39.861
		H11.262l-0.372-0.166l-1.858-2.068l-0.128-0.334v-11.75l0.118-0.323l1.968-2.321l0.382-0.177h29.477l0.396,0.195l1.689,2.196
		l0.104,0.305v11.625l-0.096,0.294l-1.689,2.318L40.848,39.861z M11.484,38.861h29.109l1.443-1.981V25.588l-1.436-1.866H11.603
		l-1.699,2.004v11.375L11.484,38.861z"/>
</g>
<g>
	<polygon fill="#412F3F" points="64.298,9.41 38.773,9.41 38.273,8.91 38.273,7.993 32.122,7.993 32.122,6.993 38.773,6.993 
		39.273,7.493 39.273,8.41 64.071,8.41 65.075,7.263 65.075,2.284 64.044,1 39.389,1 39.389,2.092 38.889,2.592 27.838,2.592 
		27.838,1.592 38.389,1.592 38.389,0.5 38.889,0 64.283,0 64.673,0.187 65.965,1.794 66.075,2.107 66.075,7.451 65.951,7.781 
		64.674,9.239 	"/>
</g>
</svg>
