<?xml version="1.0" encoding="utf-8"?>
<!-- Generator: Adobe Illustrator 16.0.0, SVG Export Plug-In . SVG Version: 6.00 Build 0)  -->
<!DOCTYPE svg PUBLIC "-//W3C//DTD SVG 1.1//EN" "http://www.w3.org/Graphics/SVG/1.1/DTD/svg11.dtd">
<svg version="1.1" id="Calque_1" xmlns="http://www.w3.org/2000/svg" xmlns:xlink="http://www.w3.org/1999/xlink" x="0px" y="0px"
	 width="96.042px" height="90.6px" viewBox="0 0 96.042 90.6" enable-background="new 0 0 96.042 90.6" xml:space="preserve">
<path fill="#973342" d="M48.465,73.83l-0.493-0.56l-12.116-0.072l3.568-22.346h12.974l-4.816,11.855l0.464,0.689h13.267
	L46.77,88.042L48.465,73.83z M38.997,49.852l-0.494,0.421l-3.726,23.343l0.491,0.579l12.138,0.073l-1.91,16.019l0.927,0.313
	l16.195-27.448l-0.432-0.754H48.787l4.815-11.858l-0.463-0.688H38.997z"/>
<polygon fill="#973342" points="43.087,0 42.859,0.034 35.125,3.145 26.374,10.395 20.121,9.319 19.834,9.354 14.346,11.765 
	14.122,11.959 10.503,17.773 10.432,18.104 11.466,25.814 3.058,31.644 2.867,31.903 0,40.877 0.009,41.206 3.923,51.514 
	4.164,51.781 14.319,56.943 14.546,56.998 28.672,56.998 28.672,55.998 14.667,55.998 4.789,50.978 1.005,41.015 3.768,32.37 
	12.287,26.462 12.498,25.984 11.447,18.149 14.89,12.618 20.099,10.33 26.432,11.421 26.836,11.312 35.57,4.043 43.123,1.005 
	54.89,1.986 64.364,7.85 71.522,17.598 71.811,17.788 83.232,20.486 92.139,28.768 95.039,39.391 92.363,50.956 82.675,55.998 
	64.927,55.998 64.927,56.998 82.797,56.998 83.027,56.941 93.029,51.736 93.285,51.405 96.041,39.494 96.037,39.25 93.065,28.366 
	92.924,28.131 83.816,19.664 83.592,19.543 72.22,16.857 65.113,7.179 55.314,1.073 55.093,1 "/>
</svg>
