<?xml version="1.0" encoding="utf-8"?>
<!-- Generator: Adobe Illustrator 16.0.0, SVG Export Plug-In . SVG Version: 6.00 Build 0)  -->
<!DOCTYPE svg PUBLIC "-//W3C//DTD SVG 1.1//EN" "http://www.w3.org/Graphics/SVG/1.1/DTD/svg11.dtd">
<svg version="1.1" id="Calque_1" xmlns="http://www.w3.org/2000/svg" xmlns:xlink="http://www.w3.org/1999/xlink" x="0px" y="0px"
	 width="109.333px" height="56.842px" viewBox="0 0 109.333 56.842" enable-background="new 0 0 109.333 56.842"
	 xml:space="preserve">
<rect x="8.833" y="12.932" fill="#796178" width="52.167" height="1"/>
<rect x="40" y="25.931" fill="#796178" width="59" height="1"/>
<rect y="31.932" fill="#796178" width="67" height="1"/>
<rect x="46" y="43.931" fill="#796178" width="63.334" height="1"/>
<rect x="20" y="49.932" fill="#796178" width="48.001" height="1"/>
<polygon fill="#796178" points="98.162,40.952 97.396,36.168 94.32,30.825 95.187,30.327 98.369,35.919 99.149,40.794 "/>
<polygon fill="#796178" points="53.87,0 43.964,0.716 34.708,4.933 29.449,9.794 30.131,10.525 35.199,5.808 44.126,1.707 
	53.849,1.003 63.756,3.995 72.295,11.155 72.655,11.27 80.888,10.615 86.453,15.043 87.979,21.833 88.954,21.615 87.391,14.654 
	87.215,14.371 81.355,9.708 81.005,9.603 72.78,10.257 64.319,3.164 54.049,0.021 "/>
<polygon fill="#796178" points="20.128,28.169 19.128,28.144 19.297,21.712 19.375,21.457 22.224,16.97 23.068,17.505 
	20.293,21.876 "/>
<polygon fill="#796178" points="3.164,44.345 3.231,44.697 8.41,52.975 8.643,53.17 17.458,56.805 17.649,56.842 83.276,56.842 
	91.469,54.525 91.685,54.399 96.671,49.431 95.966,48.723 91.07,53.601 83.206,55.843 17.749,55.843 9.172,52.308 4.182,44.329 
	5.581,36.383 4.596,36.208 "/>
</svg>
