<?xml version="1.0" encoding="utf-8"?>
<!-- Generator: Adobe Illustrator 17.0.2, SVG Export Plug-In . SVG Version: 6.00 Build 0)  -->
<!DOCTYPE svg PUBLIC "-//W3C//DTD SVG 1.1//EN" "http://www.w3.org/Graphics/SVG/1.1/DTD/svg11.dtd">
<svg version="1.1" id="Calque_1" xmlns="http://www.w3.org/2000/svg" xmlns:xlink="http://www.w3.org/1999/xlink" x="0px" y="0px"
	 width="80.582px" height="43.275px" viewBox="0 0 80.582 43.275" enable-background="new 0 0 80.582 43.275" xml:space="preserve">
<g>
	<g>
		<path d="M53.305,42.024l-22.521-0.047l-15.894-6.71L1.765,21.918L14.457,9.342l16.42-7.985l19.238,0.06l15.557,7.588
			l13.137,12.914L66.452,34.317L53.305,42.024z M31.135,40.828H52.98l12.801-7.504l11.332-11.397L64.903,9.926L49.715,2.553H31.153
			l-16.083,7.82L3.451,21.927l12.207,12.415L31.135,40.828z"/>
		<path fill="#412F3F" d="M53.643,43.275l-23.113-0.049l-16.355-6.905L0,21.907L13.725,8.308l16.866-8.202l19.813,0.062L66.403,7.97
			L80.582,21.91L67.084,35.395L53.643,43.275z M31.386,39.578H52.64l12.368-7.25l10.333-10.391L64.173,10.96L49.428,3.803H31.44
			l-15.637,7.604l-10.59,10.53l11.159,11.35L31.386,39.578z"/>
	</g>
</g>
<g>
	<g>
		<path d="M44.698,35.123H36.23l-6.853-4.979l-2.616-8.054l2.616-8.054l6.853-4.978h8.468l6.853,4.978l2.615,8.054l-2.615,8.054
			L44.698,35.123z M36.618,33.927h7.693l6.222-4.522l2.377-7.315l-2.377-7.315l-6.222-4.52h-7.693l-6.222,4.52l-2.378,7.315
			l2.378,7.315L36.618,33.927z"/>
		<path fill="#412F3F" d="M45.104,36.373h-9.28l-7.511-5.457l-2.867-8.826l2.867-8.826l7.511-5.455h9.28l7.511,5.455l2.866,8.826
			l-2.866,8.826L45.104,36.373z M37.024,32.676h6.88l5.565-4.044l2.126-6.543l-2.126-6.543l-5.565-4.042h-6.88l-5.565,4.042
			l-2.127,6.543l2.127,6.543L37.024,32.676z"/>
	</g>
</g>
</svg>
