<?xml version="1.0" encoding="utf-8"?>
<!-- Generator: Adobe Illustrator 17.0.2, SVG Export Plug-In . SVG Version: 6.00 Build 0)  -->
<!DOCTYPE svg PUBLIC "-//W3C//DTD SVG 1.1//EN" "http://www.w3.org/Graphics/SVG/1.1/DTD/svg11.dtd">
<svg version="1.1" id="Calque_1" xmlns="http://www.w3.org/2000/svg" xmlns:xlink="http://www.w3.org/1999/xlink" x="0px" y="0px"
	 width="75.091px" height="58.389px" viewBox="0 0 75.091 58.389" enable-background="new 0 0 75.091 58.389" xml:space="preserve">
<g>
	<path fill="#412F3F" d="M71.68,55.638H11.447l-0.364-0.157l-3.104-3.305l-0.136-0.343V6.903L7.95,6.595l2.833-3.617l0.394-0.191
		h59.882l0.37,0.164l3.532,3.885l0.13,0.336v44.572l-0.12,0.325l-2.911,3.395L71.68,55.638z M11.664,54.638H71.45l2.641-3.079V7.364
		l-3.253-3.578H11.42l-2.576,3.29v44.559L11.664,54.638z"/>
</g>
<g>
	<polygon fill="#412F3F" points="15.031,45.062 15.031,48.406 68.214,48.406 68.214,43.992 61.571,29.368 50.482,22.709 
		37.167,40.623 27.627,35.557 	"/>
	<path fill="#412F3F" d="M68.214,48.906H15.031l-0.5-0.5v-3.344l0.199-0.399l12.596-9.505l0.535-0.042l9.161,4.863L50.08,22.411
		l0.659-0.131l11.089,6.659l0.197,0.222l6.688,14.83v4.415L68.214,48.906z M15.531,47.906h52.183V44.1L61.18,29.717l-10.567-6.346
		l-13.044,17.55l-0.636,0.144l-9.259-4.916l-12.143,9.163V47.906z"/>
</g>
<g>
	<polygon fill="#412F3F" points="23.225,23.705 20.533,21.014 20.533,17.207 23.225,14.516 27.031,14.516 29.723,17.207 
		29.723,21.014 27.031,23.705 	"/>
	<path fill="#412F3F" d="M27.031,24.205h-3.807l-0.354-0.146l-2.691-2.691l-0.146-0.354v-3.807l0.146-0.354l2.691-2.691l0.354-0.146
		h3.807l0.354,0.146l2.691,2.691l0.146,0.354v3.807l-0.146,0.354l-2.691,2.691L27.031,24.205z M23.432,23.205h3.393l2.398-2.398
		v-3.393l-2.398-2.398h-3.393l-2.398,2.398v3.393L23.432,23.205z"/>
</g>
<g>
	<polygon fill="#412F3F" points="36.498,55.138 8.27,57.891 4.859,54.903 0.498,10.186 2.967,6.31 6.227,5.992 9.494,5.673 
		8.343,6.904 8.343,51.833 11.448,55.138 	"/>
	<path fill="#412F3F" d="M8.318,58.389L7.94,58.267l-3.41-2.987l-0.169-0.327L0,10.234l0.076-0.317l2.469-3.876l0.373-0.229
		l6.527-0.636l0.414,0.84L8.844,7.101v44.534l2.82,3.003h24.834l0.049,0.998L8.318,58.389z M5.338,54.657l3.099,2.715l17.783-1.734
		H11.447l-0.364-0.157l-3.104-3.305l-0.136-0.343V6.903l0.135-0.342L8.224,6.3L3.258,6.783l-2.245,3.525L5.338,54.657z"/>
</g>
<g>
	<polygon fill="#412F3F" points="65.647,3.287 62.566,0.497 38.183,3.286 	"/>
	<path fill="#412F3F" d="M65.647,3.787L38.183,3.786l-0.057-0.997L62.51,0l0.393,0.126l3.081,2.79L65.647,3.787z M46.951,2.786
		l17.399,0.001L62.398,1.02L46.951,2.786z"/>
</g>
</svg>
