<?xml version="1.0" encoding="utf-8"?>
<!-- Generator: Adobe Illustrator 17.0.2, SVG Export Plug-In . SVG Version: 6.00 Build 0)  -->
<!DOCTYPE svg PUBLIC "-//W3C//DTD SVG 1.1//EN" "http://www.w3.org/Graphics/SVG/1.1/DTD/svg11.dtd">
<svg version="1.1" id="Calque_1" xmlns="http://www.w3.org/2000/svg" xmlns:xlink="http://www.w3.org/1999/xlink" x="0px" y="0px"
	 width="66.539px" height="44.608px" viewBox="0 0 66.539 44.608" enable-background="new 0 0 66.539 44.608" xml:space="preserve">
<polyline fill="none" stroke="#412F3F" stroke-linecap="round" stroke-linejoin="bevel" stroke-miterlimit="10" points="5.598,16.8 
	1.065,20.69 0,26.958 5.598,40.651 "/>
<polyline fill="none" stroke="#412F3F" stroke-linecap="round" stroke-linejoin="bevel" stroke-miterlimit="10" points="
	46.158,4.463 55.155,0 60.408,1.5 62.408,4.463 "/>
<path fill="#412F3F" d="M62.78,4.463H9.676L5.598,8.812v31.839l4.1,3.957h11.276H31.16h31.37l4.009-4.192v-31.5L62.78,4.463z
	 M35.03,37.406l-2.119,2.285H21.643h-3.854h-3.628l-2.19-2.16V26.354L14.155,24h18.818l2.057,2.344V37.406z M59.167,37.499H39.989
	v-1h19.178V37.499z M59.167,31.812H39.989v-1h19.178V31.812z M59.167,26.499H39.989v-1h19.178V26.499z M59.167,17.875l-2.133,1.714
	H31.659h-7.92H13.95l-2.167-1.464v-6.583l2.167-1.953h42.833l2.383,2.036V17.875z"/>
</svg>
