<?xml version="1.0" encoding="utf-8"?>
<!-- Generator: Adobe Illustrator 17.0.2, SVG Export Plug-In . SVG Version: 6.00 Build 0)  -->
<!DOCTYPE svg PUBLIC "-//W3C//DTD SVG 1.1//EN" "http://www.w3.org/Graphics/SVG/1.1/DTD/svg11.dtd">
<svg version="1.1" id="Calque_1" xmlns="http://www.w3.org/2000/svg" xmlns:xlink="http://www.w3.org/1999/xlink" x="0px" y="0px"
	 width="67.532px" height="45.589px" viewBox="0 0 67.532 45.589" enable-background="new 0 0 67.532 45.589" xml:space="preserve">
<g>
	<path fill="#412F3F" d="M63.023,45.589H10.19l-0.348-0.141l-4.1-3.957l-0.152-0.359V9.293l0.136-0.342l4.079-4.35l0.364-0.158
		h53.104l0.382,0.178l3.759,4.453l0.118,0.322v31.5l-0.139,0.346l-4.009,4.192L63.023,45.589z M10.393,44.589H62.81l3.723-3.893
		V9.579l-3.491-4.136H10.387L6.591,9.491V40.92L10.393,44.589z"/>
</g>
<g>
	<path fill="#412F3F" d="M57.526,20.569H14.443l-0.28-0.086l-2.167-1.464l-0.22-0.414v-6.583l0.165-0.371l2.167-1.953l0.335-0.129
		h42.833l0.325,0.12l2.383,2.036l0.175,0.38v6.25l-0.187,0.39l-2.133,1.714L57.526,20.569z M14.597,19.569h42.754l1.809-1.453v-5.78
		l-2.067-1.767H14.636l-1.859,1.676v6.095L14.597,19.569z"/>
</g>
<g>
	<path fill="#412F3F" d="M33.404,40.672h-18.75l-0.352-0.144l-2.19-2.16l-0.148-0.356V26.834l0.134-0.34l2.185-2.354l0.366-0.16
		h18.818l0.376,0.17l2.056,2.344l0.124,0.33v11.062l-0.133,0.34l-2.119,2.285L33.404,40.672z M14.859,39.672h18.326l1.837-1.981
		V27.013L33.24,24.98H14.866l-1.902,2.05v10.772L14.859,39.672z"/>
</g>
<g>
	<path fill="#412F3F" d="M6.091,41.632c-0.197,0-0.384-0.117-0.463-0.311L0.03,27.628L0,27.354l1.065-6.268l0.168-0.295l4.532-3.891
		c0.209-0.179,0.525-0.155,0.704,0.054c0.181,0.209,0.156,0.524-0.054,0.704l-4.395,3.773L1.01,27.382l5.544,13.561
		c0.104,0.256-0.019,0.548-0.273,0.652C6.218,41.62,6.154,41.632,6.091,41.632z"/>
</g>
<g>
	<path fill="#412F3F" d="M46.651,5.443c-0.184,0-0.36-0.102-0.448-0.277c-0.122-0.248-0.021-0.548,0.226-0.671l8.997-4.463L55.786,0
		l5.253,1.5l0.276,0.201l2,2.963c0.155,0.229,0.095,0.539-0.135,0.693c-0.226,0.156-0.538,0.096-0.693-0.135l-1.898-2.812
		l-4.892-1.396l-8.823,4.377C46.802,5.427,46.727,5.443,46.651,5.443z"/>
</g>
<g>
	<rect x="40.482" y="25.98" fill="#412F3F" width="19.177" height="1"/>
</g>
<g>
	<rect x="40.482" y="31.293" fill="#412F3F" width="19.177" height="1"/>
</g>
<g>
	<rect x="40.482" y="36.98" fill="#412F3F" width="19.177" height="1"/>
</g>
</svg>
