<?xml version="1.0" encoding="utf-8"?>
<!-- Generator: Adobe Illustrator 17.0.2, SVG Export Plug-In . SVG Version: 6.00 Build 0)  -->
<!DOCTYPE svg PUBLIC "-//W3C//DTD SVG 1.1//EN" "http://www.w3.org/Graphics/SVG/1.1/DTD/svg11.dtd">
<svg version="1.1" id="Calque_1" xmlns="http://www.w3.org/2000/svg" xmlns:xlink="http://www.w3.org/1999/xlink" x="0px" y="0px"
	 width="44.834px" height="53.438px" viewBox="0 0 44.834 53.438" enable-background="new 0 0 44.834 53.438" xml:space="preserve">
<g>
	<path fill="#412F3F" d="M40.84,53.938H28.205l-0.5-0.5V40.331l-1.759-2.001H18.64l-2.031,2.166v12.942l-0.5,0.5H3.923l-0.354-0.147
		L0.146,50.35L0,49.997V23.522l0.136-0.343L20.092,1.962l0.365-0.157l3.546,0.01l0.349,0.143l5.217,5.115l0.079-4.628l0.104-0.296
		l1.505-1.953L31.652,0h5.812l0.394,0.192l1.269,1.622l0.106,0.31l-0.06,13.169l5.567,7.81l0.093,0.29v26.396l-0.139,0.346
		l-3.494,3.65L40.84,53.938z M28.705,52.938h11.921l3.208-3.352V23.553l-5.568-7.811l-0.093-0.292l0.06-13.157L37.221,1h-5.322
		l-1.254,1.627l-0.097,5.625l-0.85,0.349l-5.901-5.787l-3.125-0.008L1,23.721v26.07l3.131,3.147h11.478v-12.64l0.135-0.342
		l2.314-2.469l0.365-0.158h7.75l0.376,0.17l2.032,2.312l0.124,0.33V52.938z"/>
</g>
<g>
	<path fill="#412F3F" d="M28.205,53.938H16.108c-0.276,0-0.5-0.224-0.5-0.5s0.224-0.5,0.5-0.5h12.097c0.276,0,0.5,0.224,0.5,0.5
		S28.481,53.938,28.205,53.938z"/>
</g>
<g>
	<path fill="#412F3F" d="M25.11,27.825h-5.797l-0.368-0.162l-1.062-1.156l-0.132-0.338v-5.718l0.122-0.327l0.812-0.938l0.378-0.173
		h6.266l0.38,0.175l0.734,0.859l0.12,0.325v5.797l-0.114,0.318l-0.953,1.156L25.11,27.825z M19.533,26.825h5.342l0.688-0.836v-5.433
		l-0.465-0.544h-5.807l-0.541,0.625v5.336L19.533,26.825z"/>
</g>
</svg>
