<?xml version="1.0" encoding="utf-8"?>
<!-- Generator: Adobe Illustrator 17.0.2, SVG Export Plug-In . SVG Version: 6.00 Build 0)  -->
<!DOCTYPE svg PUBLIC "-//W3C//DTD SVG 1.1//EN" "http://www.w3.org/Graphics/SVG/1.1/DTD/svg11.dtd">
<svg version="1.1" id="Calque_1" xmlns="http://www.w3.org/2000/svg" xmlns:xlink="http://www.w3.org/1999/xlink" x="0px" y="0px"
	 width="72.923px" height="72.808px" viewBox="0 0 72.923 72.808" enable-background="new 0 0 72.923 72.808" xml:space="preserve">
<g>
	
		<rect x="38.267" y="17.364" transform="matrix(0.7071 0.7071 -0.7071 0.7071 29.912 -30.9001)" fill="#412F3F" width="27.977" height="6.586"/>
	<path fill="#412F3F" d="M60.172,33.23h-0.707L39.683,13.447V12.74l4.656-4.657h0.707l19.783,19.783v0.707L60.172,33.23z
		 M40.743,13.094L59.818,32.17l3.95-3.95L44.692,9.144L40.743,13.094z"/>
</g>
<g>
	<path fill="#412F3F" d="M62.67,26.398h-0.707L46.524,10.96v-0.707L56.777,0h0.707l15.438,15.438v0.707L62.67,26.398z
		 M47.585,10.606l14.731,14.731l9.546-9.546L57.131,1.061L47.585,10.606z"/>
</g>
<g>
	<path fill="#412F3F" d="M25.284,64.278h-0.707L8.918,48.619v-0.707l32.979-32.979h0.707l15.659,15.659v0.707L25.284,64.278z
		 M9.979,48.266l14.952,14.952l32.272-32.272L42.251,15.993L9.979,48.266z"/>
</g>
<g>
	
		<rect x="33.091" y="16.286" transform="matrix(0.7071 0.7071 -0.7071 0.7071 37.8443 -12.1523)" fill="#412F3F" width="1" height="46.64"/>
</g>
<g>
	<polygon fill="#412F3F" points="4.474,72.808 4.018,72.672 0.134,68.788 0,68.321 3.493,53.327 3.627,53.087 8.908,47.806 
		9.615,48.513 4.435,53.693 1.037,68.277 4.533,71.773 19.36,68.672 24.567,63.465 25.274,64.172 19.962,69.484 19.711,69.62 	"/>
</g>
<g>
	<polygon fill="#412F3F" points="2.234,61.238 11.25,70.253 4.371,72.318 0.671,68.218 	"/>
	<path fill="#412F3F" d="M4.515,72.797L4,72.653l-3.7-4.1l-0.117-0.444l1.563-6.981l0.842-0.244l9.016,9.016l-0.21,0.832
		L4.515,72.797z M1.215,68.076l3.315,3.672l5.774-1.733l-7.781-7.781L1.215,68.076z"/>
</g>
</svg>
