<?xml version="1.0" encoding="utf-8"?>
<!-- Generator: Adobe Illustrator 17.0.2, SVG Export Plug-In . SVG Version: 6.00 Build 0)  -->
<!DOCTYPE svg PUBLIC "-//W3C//DTD SVG 1.1//EN" "http://www.w3.org/Graphics/SVG/1.1/DTD/svg11.dtd">
<svg version="1.1" id="Calque_1" xmlns="http://www.w3.org/2000/svg" xmlns:xlink="http://www.w3.org/1999/xlink" x="0px" y="0px"
	 width="65.925px" height="57px" viewBox="0 0 65.925 57" enable-background="new 0 0 65.925 57" xml:space="preserve">
<g>
	<path fill="#412F3F" d="M55.3,44.194l-2.094-3.11c2.934-4.089,3.974-7.382,3.974-12.584c0-13.509-10.99-24.5-24.5-24.5
		c-3.523,0-6.924,0.731-10.105,2.174l-1.652-3.643C24.627,0.852,28.583,0,32.68,0c15.715,0,28.5,12.785,28.5,28.5
		c0,4.233-0.622,7.48-2.165,10.684l5.973-1.44l0.938,3.889L55.3,44.194z"/>
</g>
<g>
	<path fill="#412F3F" d="M32.68,57c-15.715,0-28.5-12.785-28.5-28.5c0-4.338,0.964-8.541,2.815-12.373l-6.042,1.481L0,13.724
		l10.67-2.616l2.101,3.109C9.768,18.397,8.18,23.335,8.18,28.5c0,13.509,10.99,24.5,24.5,24.5c3.443,0,6.771-0.699,9.892-2.078
		l1.617,3.659C40.555,56.186,36.683,57,32.68,57z"/>
</g>
<g>
	
		<rect x="47.017" y="36.117" transform="matrix(0.2506 0.9681 -0.9681 0.2506 76.9084 -23.1179)" fill="#412F3F" width="12.739" height="4.001"/>
</g>
<g>
	
		<rect x="5.659" y="15.363" transform="matrix(0.3169 0.9485 -0.9485 0.3169 24.6689 0.4719)" fill="#412F3F" width="12.695" height="3.999"/>
</g>
</svg>
