<?xml version="1.0" encoding="utf-8"?>
<!-- Generator: Adobe Illustrator 17.0.2, SVG Export Plug-In . SVG Version: 6.00 Build 0)  -->
<!DOCTYPE svg PUBLIC "-//W3C//DTD SVG 1.1//EN" "http://www.w3.org/Graphics/SVG/1.1/DTD/svg11.dtd">
<svg version="1.1" id="Calque_1" xmlns="http://www.w3.org/2000/svg" xmlns:xlink="http://www.w3.org/1999/xlink" x="0px" y="0px"
	 width="72.125px" height="55.847px" viewBox="0 0 72.125 55.847" enable-background="new 0 0 72.125 55.847" xml:space="preserve">
<g>
	<path fill="#412F3F" d="M68.5,55.847H3.833l-0.34-0.133L0.16,52.631L0,52.264V10.347l0.129-0.335l3.042-3.375l0.371-0.165h6.547
		l0.068-5.978L10.657,0h7.317l0.5,0.501l-0.016,5.971h49.374l0.346,0.139l3.792,3.625l0.154,0.361V52.18l-0.145,0.352l-3.125,3.167
		L68.5,55.847z M4.028,54.847h64.263l2.834-2.872V10.811l-3.492-3.339H17.958l-0.5-0.501L17.474,1h-6.322l-0.068,5.978l-0.5,0.494
		H3.765L1,10.539v41.506L4.028,54.847z"/>
</g>
<g>
	<g>
		<polygon fill="#412F3F" points="33.303,27.284 29.328,31.159 29.328,37.59 33.303,41.565 38.923,41.565 42.899,37.589 
			42.899,31.284 38.924,27.284 		"/>
	</g>
	<g>
		<path fill="#412F3F" d="M48.208,24.222l-5.31-4.946l-13.57-0.042l-5.37,4.988H0.5v28.042l3.333,3.083H68.5l3.125-3.167V24.222
			H48.208z M49.899,40.489l-8.075,8.075h-11.42l-8.075-8.076V27.222l7.297-7H42.5l7.398,6.812V40.489z"/>
	</g>
</g>
<g>
	<rect x="10.657" y="0.5" fill="#412F3F" width="7.301" height="6.463"/>
	<path fill="#412F3F" d="M17.958,7.444h-7.301l-0.481-0.481V0.5l0.481-0.481h7.301L18.439,0.5v6.463L17.958,7.444z M11.139,6.481
		h6.338v-5.5h-6.338V6.481z"/>
</g>
</svg>
