<?xml version="1.0" encoding="utf-8"?>
<!-- Generator: Adobe Illustrator 17.0.2, SVG Export Plug-In . SVG Version: 6.00 Build 0)  -->
<!DOCTYPE svg PUBLIC "-//W3C//DTD SVG 1.1//EN" "http://www.w3.org/Graphics/SVG/1.1/DTD/svg11.dtd">
<svg version="1.1" xmlns="http://www.w3.org/2000/svg" xmlns:xlink="http://www.w3.org/1999/xlink" x="0px" y="0px" width="61.25px"
	 height="48.5px" viewBox="1233.05 656.22 61.25 48.5" enable-background="new 1233.05 656.22 61.25 48.5" xml:space="preserve">
<g id="Calque_1">
	<polygon fill="none" stroke="#412F3F" stroke-width="0.9969" stroke-linejoin="bevel" stroke-miterlimit="10" points="
		1287.187,697.333 1258.789,697.333 1258.788,703.501 1249.01,697.333 1239.91,697.333 1234.25,691.333 1234.25,663.083 
		1239.75,657.189 1287.506,657.189 1292.75,663 1292.75,691.333 	"/>
	<polygon fill="none" stroke="#412F3F" stroke-linejoin="bevel" stroke-miterlimit="10" points="1254.036,679.16 1254.036,675.342 
		1253.553,674.776 1249.426,674.776 1248.891,675.394 1248.891,679.16 1249.591,679.922 1253.409,679.922 	"/>
	<polygon fill="none" stroke="#412F3F" stroke-linejoin="bevel" stroke-miterlimit="10" points="1266.282,679.16 1266.282,675.342 
		1265.798,674.776 1261.672,674.776 1261.136,675.394 1261.136,679.16 1261.836,679.922 1265.654,679.922 	"/>
	<polygon fill="none" stroke="#412F3F" stroke-linejoin="bevel" stroke-miterlimit="10" points="1278.527,679.16 1278.527,675.342 
		1278.043,674.776 1273.917,674.776 1273.381,675.394 1273.381,679.16 1274.081,679.922 1277.899,679.922 	"/>
</g>
<g id="Calque_2">
</g>
</svg>
