<?xml version="1.0" encoding="utf-8"?>
<!-- Generator: Adobe Illustrator 17.0.2, SVG Export Plug-In . SVG Version: 6.00 Build 0)  -->
<!DOCTYPE svg PUBLIC "-//W3C//DTD SVG 1.1//EN" "http://www.w3.org/Graphics/SVG/1.1/DTD/svg11.dtd">
<svg version="1.1" id="Calque_1" xmlns="http://www.w3.org/2000/svg" xmlns:xlink="http://www.w3.org/1999/xlink" x="0px" y="0px"
	 width="57.058px" height="54.108px" viewBox="0 0 57.058 54.108" enable-background="new 0 0 57.058 54.108" xml:space="preserve">
<g>
	<polygon fill="#412F3F" points="13.164,40.59 0.5,40.59 0,40.09 0,13.421 0.5,12.921 13.164,12.921 13.164,13.921 1,13.921 
		1,39.59 13.164,39.59 	"/>
</g>
<g>
	<path fill="#412F3F" d="M32.955,54.108h-3.764l-0.322-0.118L12.841,40.473l-0.178-0.382V13.421l0.185-0.388L28.773,0.112L29.088,0
		h3.866l0.5,0.5v53.108L32.955,54.108z M29.374,53.108h3.081V1h-3.188L13.664,13.659v26.199L29.374,53.108z"/>
</g>
<g>
	<polygon fill="#412F3F" points="41.911,38.989 41.09,38.417 45.783,31.679 45.783,19.798 41.104,13.726 41.897,13.116 
		46.679,19.322 46.783,19.627 46.783,31.836 46.693,32.122 	"/>
</g>
<g>
	<polygon fill="#412F3F" points="57.058,27.054 56.058,27.054 56.058,19.599 54.277,13.659 49.54,7.824 50.317,7.194 55.206,13.277 
		57.058,19.525 	"/>
</g>
<g>
	<polygon fill="#412F3F" points="50.317,45.922 49.54,45.292 54.277,39.457 56.058,33.518 56.058,26.062 57.058,26.062 
		57.037,33.734 55.116,40.01 	"/>
</g>
</svg>
