<?xml version="1.0" encoding="utf-8"?>
<!-- Generator: Adobe Illustrator 17.0.2, SVG Export Plug-In . SVG Version: 6.00 Build 0)  -->
<!DOCTYPE svg PUBLIC "-//W3C//DTD SVG 1.1//EN" "http://www.w3.org/Graphics/SVG/1.1/DTD/svg11.dtd">
<svg version="1.1" id="Calque_1" xmlns="http://www.w3.org/2000/svg" xmlns:xlink="http://www.w3.org/1999/xlink" x="0px" y="0px"
	 width="62.518px" height="47.767px" viewBox="0 0 62.518 47.767" enable-background="new 0 0 62.518 47.767" xml:space="preserve">
<g>
	<path fill="#412F3F" d="M57.66,47.767H4.776l-0.371-0.165l-4.294-4.754l-0.129-0.335V7.122l0.5-0.5h61.535l0.5,0.5v35.141
		l-0.123,0.328l-4.357,5.004L57.66,47.767z M4.998,46.767h52.435l4.085-4.691V7.622H0.982V42.32L4.998,46.767z"/>
</g>
<g>
	<polygon fill="#412F3F" points="20.907,7.135 19.907,7.109 19.998,3.497 20.122,3.18 22.765,0.17 23.141,0 31.022,0 31.022,1 
		23.367,1 20.993,3.703 	"/>
</g>
<g>
	<polygon fill="#412F3F" points="41.365,7.135 41.279,3.707 38.896,1 30.693,1 30.693,0 39.122,0 39.497,0.17 42.149,3.183 
		42.274,3.5 42.365,7.109 	"/>
</g>
<g>
	<polygon fill="#412F3F" points="27.381,23.692 10.761,23.692 10.511,23.625 3.479,19.558 3.246,19.256 0,7.253 0.965,6.991 
		4.157,18.796 10.895,22.692 27.381,22.692 	"/>
</g>
<g>
	<polygon fill="#412F3F" points="51.555,23.692 35.352,23.692 35.352,22.692 51.417,22.692 57.971,18.8 61.079,6.995 62.046,7.249 
		58.886,19.252 58.657,19.555 51.81,23.622 	"/>
</g>
<g>
	<path fill="#412F3F" d="M34.271,27.75h-5.797l-0.368-0.162l-1.062-1.156l-0.132-0.338v-5.718l0.122-0.327l0.812-0.938l0.378-0.173
		h6.266l0.38,0.175l0.734,0.859l0.12,0.325v5.797l-0.114,0.318l-0.953,1.156L34.271,27.75z M28.693,26.75h5.342l0.688-0.836v-5.433
		l-0.465-0.544h-5.807l-0.541,0.625v5.336L28.693,26.75z"/>
</g>
</svg>
