<?xml version="1.0" encoding="utf-8"?>
<!-- Generator: Adobe Illustrator 17.0.2, SVG Export Plug-In . SVG Version: 6.00 Build 0)  -->
<!DOCTYPE svg PUBLIC "-//W3C//DTD SVG 1.1//EN" "http://www.w3.org/Graphics/SVG/1.1/DTD/svg11.dtd">
<svg version="1.1" id="Calque_1" xmlns="http://www.w3.org/2000/svg" xmlns:xlink="http://www.w3.org/1999/xlink" x="0px" y="0px"
	 width="62.469px" height="46.766px" viewBox="0 0 62.469 46.766" enable-background="new 0 0 62.469 46.766" xml:space="preserve">
<polyline fill="none" stroke="#412F3F" stroke-width="0.9643" stroke-linejoin="bevel" stroke-miterlimit="10" points="30.992,0 
	23.109,0 20.467,3.009 20.376,6.622 "/>
<polyline fill="none" stroke="#412F3F" stroke-width="0.9643" stroke-linejoin="bevel" stroke-miterlimit="10" points="30.662,0 
	39.091,0 41.744,3.012 41.834,6.622 "/>
<polygon fill="#412F3F" stroke="#412F3F" stroke-width="0.9643" stroke-linejoin="bevel" stroke-miterlimit="10" points="
	61.532,6.622 58.371,18.625 51.524,22.692 35.321,22.692 35.192,22.692 35.192,25.593 34.239,26.75 28.443,26.75 27.38,25.594 
	27.38,22.692 27.35,22.692 10.729,22.692 3.698,18.625 0.452,6.622 0.452,42.012 4.745,46.766 57.629,46.766 61.986,41.762 
	61.986,6.622 "/>
<polygon fill="none" stroke="#412F3F" stroke-miterlimit="10" points="35.25,25.511 35.25,19.715 34.516,18.855 28.251,18.855 
	27.438,19.794 27.438,25.511 28.5,26.668 34.297,26.668 "/>
<line fill="none" stroke="#412F3F" stroke-linejoin="bevel" stroke-miterlimit="10" x1="0" y1="6.622" x2="62.469" y2="6.622"/>
</svg>
