<?xml version="1.0" encoding="utf-8"?>
<!-- Generator: Adobe Illustrator 16.0.0, SVG Export Plug-In . SVG Version: 6.00 Build 0)  -->
<!DOCTYPE svg PUBLIC "-//W3C//DTD SVG 1.1//EN" "http://www.w3.org/Graphics/SVG/1.1/DTD/svg11.dtd">
<svg version="1.1" id="Calque_1" xmlns="http://www.w3.org/2000/svg" xmlns:xlink="http://www.w3.org/1999/xlink" x="0px" y="0px"
	 width="96.042px" height="98.27px" viewBox="0 0 96.042 98.27" enable-background="new 0 0 96.042 98.27" xml:space="preserve">
<rect x="33.43" y="71.885" transform="matrix(4.978935e-004 1 -1 4.978935e-004 111.6796 33.0353)" fill="#3A384F" width="11.769" height="1"/>
<rect x="63.43" y="72.885" transform="matrix(5.808631e-004 1 -1 5.808631e-004 142.6589 4.0287)" fill="#3A384F" width="11.769" height="1"/>
<rect x="19.43" y="72.885" transform="matrix(4.978935e-004 1 -1 4.978935e-004 98.6866 48.0348)" fill="#3A384F" width="11.769" height="1"/>
<rect x="50.43" y="82.885" transform="matrix(5.808631e-004 1 -1 5.808631e-004 139.6665 27.0229)" fill="#3A384F" width="11.769" height="1"/>
<rect x="34.813" y="86.501" fill="#3A384F" width="1.001" height="11.769"/>
<path fill="#3A384F" d="M26.836,11.313l8.734-7.269l7.552-3.038L54.89,1.986l9.475,5.863l7.158,9.749l0.288,0.19l11.422,2.698
	l8.906,8.282l2.9,10.623l-2.676,11.564l-9.688,5.043H14.667l-9.878-5.021l-3.783-9.963l2.762-8.645l8.519-5.907l0.211-0.478
	l-1.05-7.835l3.442-5.531l5.209-2.289l6.333,1.092L26.836,11.313z M43.087,0l-0.228,0.034l-7.735,3.111l-8.751,7.25l-6.253-1.077
	l-0.286,0.035l-5.489,2.411l-0.224,0.194l-3.618,5.815l-0.072,0.331l1.035,7.71l-8.409,5.83l-0.191,0.259L0,40.876l0.009,0.33
	l3.914,10.307l0.24,0.268l10.156,5.162l0.227,0.055h68.25l0.23-0.057l10.002-5.205l0.256-0.331l2.756-11.911l-0.004-0.244
	l-2.972-10.884l-0.142-0.235l-9.107-8.467l-0.225-0.121L72.22,16.857l-7.106-9.678l-9.799-6.106L55.093,1L43.087,0z"/>
</svg>
