<?xml version="1.0" encoding="utf-8"?>
<!-- Generator: Adobe Illustrator 17.0.2, SVG Export Plug-In . SVG Version: 6.00 Build 0)  -->
<!DOCTYPE svg PUBLIC "-//W3C//DTD SVG 1.1//EN" "http://www.w3.org/Graphics/SVG/1.1/DTD/svg11.dtd">
<svg version="1.1" id="Calque_1" xmlns="http://www.w3.org/2000/svg" xmlns:xlink="http://www.w3.org/1999/xlink" x="0px" y="0px"
	 width="61.551px" height="61.555px" viewBox="0 0 61.551 61.555" enable-background="new 0 0 61.551 61.555" xml:space="preserve">
<path fill="#F7F2EA" d="M31.072,28.205c0.716,0.716,0.716,1.877,0,2.593l0,0c-0.716,0.716-1.877,0.716-2.593,0L15.118,17.436
	c-0.716-0.716-0.716-1.877,0-2.593l0,0c0.716-0.716,1.877-0.716,2.593,0L31.072,28.205z"/>
<path fill="#F7F2EA" d="M31.711,30.797c-0.716,0.716-1.877,0.716-2.593,0l0,0c-0.716-0.716-0.716-1.877,0-2.593l13.361-13.361
	c0.716-0.716,1.877-0.716,2.593,0l0,0c0.716,0.716,0.716,1.877,0,2.593L31.711,30.797z"/>
<path fill="#F7F2EA" d="M31.072,44.259c0.716,0.716,0.716,1.877,0,2.593l0,0c-0.716,0.716-1.877,0.716-2.593,0L15.118,33.491
	c-0.716-0.716-0.716-1.877,0-2.593l0,0c0.716-0.716,1.877-0.716,2.593,0L31.072,44.259z"/>
<path fill="#F7F2EA" d="M31.711,46.852c-0.716,0.716-1.877,0.716-2.593,0l0,0c-0.716-0.716-0.716-1.877,0-2.593l13.361-13.361
	c0.716-0.716,1.877-0.716,2.593,0l0,0c0.716,0.716,0.716,1.877,0,2.593L31.711,46.852z"/>
</svg>
