<?xml version="1.0" encoding="utf-8"?>
<!-- Generator: Adobe Illustrator 17.0.2, SVG Export Plug-In . SVG Version: 6.00 Build 0)  -->
<!DOCTYPE svg PUBLIC "-//W3C//DTD SVG 1.1//EN" "http://www.w3.org/Graphics/SVG/1.1/DTD/svg11.dtd">
<svg version="1.1" id="Calque_1" xmlns="http://www.w3.org/2000/svg" xmlns:xlink="http://www.w3.org/1999/xlink" x="0px" y="0px"
	 width="72.125px" height="60.409px" viewBox="0 0 72.125 60.409" enable-background="new 0 0 72.125 60.409" xml:space="preserve">
<g>
	<path fill="#412F3F" d="M68.5,49.375H3.833l-0.34-0.133L0.16,46.159L0,45.792V3.875L0.129,3.54l3.042-3.375L3.542,0h64.291
		l0.346,0.139l3.792,3.624l0.154,0.361v41.584L71.98,46.06l-3.125,3.167L68.5,49.375z M4.028,48.375h64.263l2.834-2.872V4.338
		L67.633,1H3.765L1,4.067v41.506L4.028,48.375z"/>
</g>
<g>
	<polygon fill="#412F3F" points="29.264,48.375 43.101,48.375 44.049,57.187 46.007,60.409 26.118,60.409 28.327,57.149 	"/>
</g>
<g>
	<path fill="#412F3F" d="M0.5,36.421v9.371l3.333,3.083H68.5l3.125-3.167v-9.287H0.5z M39.257,43.971l-1.871,1.871H34.74
		l-1.871-1.871v-2.646l1.871-1.871h2.646l1.871,1.871V43.971z"/>
</g>
</svg>
