<?xml version="1.0" encoding="utf-8"?>
<!-- Generator: Adobe Illustrator 17.0.2, SVG Export Plug-In . SVG Version: 6.00 Build 0)  -->
<!DOCTYPE svg PUBLIC "-//W3C//DTD SVG 1.1//EN" "http://www.w3.org/Graphics/SVG/1.1/DTD/svg11.dtd">
<svg version="1.1" id="Calque_1" xmlns="http://www.w3.org/2000/svg" xmlns:xlink="http://www.w3.org/1999/xlink" x="0px" y="0px"
	 width="58.5px" height="46.312px" viewBox="0 0 58.5 46.312" enable-background="new 0 0 58.5 46.312" xml:space="preserve">
<path fill="#412F3F" d="M53.256,0H5.5L0,5.895v28.25l5.66,6h9.1l7.228,6.167h2.55l0-6.167h28.398l5.564-6V5.811L53.256,0z
	 M19.786,21.971l-0.628,0.762h-3.818l-0.7-0.762v-3.766l0.536-0.618h4.127l0.484,0.566V21.971z M32.032,21.971l-0.628,0.762h-3.818
	l-0.7-0.762v-3.766l0.536-0.618h4.127l0.484,0.566V21.971z M44.277,21.971l-0.628,0.762h-3.818l-0.7-0.762v-3.766l0.536-0.618h4.127
	l0.484,0.566V21.971z"/>
</svg>
