<?xml version="1.0" encoding="utf-8"?>
<!-- Generator: Adobe Illustrator 17.0.2, SVG Export Plug-In . SVG Version: 6.00 Build 0)  -->
<!DOCTYPE svg PUBLIC "-//W3C//DTD SVG 1.1//EN" "http://www.w3.org/Graphics/SVG/1.1/DTD/svg11.dtd">
<svg version="1.1" id="Calque_1" xmlns="http://www.w3.org/2000/svg" xmlns:xlink="http://www.w3.org/1999/xlink" x="0px" y="0px"
	 width="72.592px" height="52.609px" viewBox="0 0 72.592 52.609" enable-background="new 0 0 72.592 52.609" xml:space="preserve">
<g>
	<path d="M66.651,52.646L37.51,52.609L30,49.584l0.418-7.906l1.412-6.969l4.038-7.1l4.413-3.205l4.448-1.53l-4.398-4.43l-1.46-7.721
		l3.704-7.309L50.027,0l2.749,0.047l7.241,3.368l3.705,7.309l-1.46,7.721l-4.398,4.43l4.58,1.6l4.421,3.294l3.953,7.089l1.348,6.75
		l0.426,7.942L66.651,52.646z M37.793,51.646h28.614l5.151-2.687l-0.382-7.229l-1.323-6.601l-3.807-6.778l-4.133-3.026L56.03,23.3
		l5.307-5.342l1.341-7.086l-3.396-6.695L52.455,1h-2.317l-6.826,3.177l-3.396,6.695l1.341,7.086l5.307,5.342l-5.885,2.025
		l-4.132,3.026L32.74,35.13l-1.333,6.672l-0.371,7.122L37.793,51.646z"/>
</g>
<g>
	<path d="M21.984,52.646H6.246L0,49.557l0.416-7.879l1.412-6.969l4.038-7.1l4.413-3.205l4.448-1.53l-4.398-4.43l-1.46-7.721
		l3.704-7.309L20.025,0l2.749,0.047l7.241,3.368l3.705,7.309l-1.46,7.721l-4.398,4.43l4.576,1.597l2.224,1.599l-4.802,8.322
		l-1.521,6.692l-0.372,8.481L21.984,52.646z M6.48,51.646h15.262l5.252-2.703l0.358-7.991l1.604-6.994l4.387-7.604l-1.43-1.026
		L26.028,23.3l5.307-5.342l1.341-7.086l-3.396-6.695L22.453,1h-2.317L13.31,4.177l-3.396,6.695l1.341,7.086l5.307,5.342
		l-5.885,2.025l-4.132,3.026L2.738,35.13l-1.333,6.672l-0.372,7.149L6.48,51.646z"/>
</g>
</svg>
