<?xml version="1.0" encoding="utf-8"?>
<!-- Generator: Adobe Illustrator 17.0.2, SVG Export Plug-In . SVG Version: 6.00 Build 0)  -->
<!DOCTYPE svg PUBLIC "-//W3C//DTD SVG 1.1//EN" "http://www.w3.org/Graphics/SVG/1.1/DTD/svg11.dtd">
<svg version="1.1" id="Calque_1" xmlns="http://www.w3.org/2000/svg" xmlns:xlink="http://www.w3.org/1999/xlink" x="0px" y="0px"
	 width="53.125px" height="48.204px" viewBox="0 0 53.125 48.204" enable-background="new 0 0 53.125 48.204" xml:space="preserve">
<g>
	<path fill="none" stroke="#412F3F" stroke-linecap="round" stroke-linejoin="bevel" stroke-miterlimit="10" d="M38.638,31.081"/>
</g>
<g>
	<g>
		<path fill="#412F3F" d="M26.661,48.204c-0.125,0-0.25-0.046-0.347-0.14c-0.199-0.191-0.205-0.508-0.014-0.707l21.35-22.2
			l4.471-10.662l-3.637-9.09l-8.505-4.391l-8.601,1.942l-4.331,5.296c-0.175,0.215-0.489,0.246-0.703,0.07
			c-0.214-0.175-0.245-0.489-0.07-0.703l4.439-5.43L30.99,2.02L39.937,0l0.34,0.043l8.832,4.56l0.234,0.259l3.782,9.453
			l-0.003,0.379l-4.687,11.09L27.021,48.051C26.924,48.152,26.792,48.204,26.661,48.204z"/>
	</g>
	<g>
		<path fill="#412F3F" d="M26.661,48.204c-0.131,0-0.261-0.051-0.358-0.151L4.691,25.785L4.589,25.63L0.003,14.693L0,14.314
			l3.782-9.453l0.234-0.259l8.832-4.56L13.188,0l8.946,2.02l0.277,0.172l4.439,5.45c0.175,0.214,0.143,0.528-0.072,0.703
			c-0.213,0.173-0.528,0.145-0.703-0.072l-4.33-5.316l-8.601-1.941L4.641,5.405l-3.637,9.09l4.471,10.661L27.02,47.355
			c0.192,0.198,0.188,0.515-0.01,0.707C26.912,48.157,26.787,48.204,26.661,48.204z"/>
	</g>
</g>
</svg>
