<?xml version="1.0" encoding="utf-8"?>
<!-- Generator: Adobe Illustrator 17.0.2, SVG Export Plug-In . SVG Version: 6.00 Build 0)  -->
<!DOCTYPE svg PUBLIC "-//W3C//DTD SVG 1.1//EN" "http://www.w3.org/Graphics/SVG/1.1/DTD/svg11.dtd">
<svg version="1.1" id="Calque_1" xmlns="http://www.w3.org/2000/svg" xmlns:xlink="http://www.w3.org/1999/xlink" x="0px" y="0px"
	 width="53.126px" height="48.205px" viewBox="0 0 53.126 48.205" enable-background="new 0 0 53.126 48.205" xml:space="preserve">
<g>
	<g>
		<g>
			<polyline fill="#412F3F" points="26.662,7.937 31.102,2.508 40.047,0.488 48.88,5.047 52.662,14.501 48.076,25.437 
				26.662,47.705 			"/>
			<path fill="#412F3F" d="M26.662,48.205c-0.125,0-0.25-0.046-0.347-0.14c-0.199-0.191-0.205-0.508-0.014-0.707l21.35-22.2
				l4.471-10.662l-3.637-9.09L39.98,1.016L31.38,2.957l-4.331,5.296c-0.174,0.214-0.49,0.245-0.703,0.071
				c-0.214-0.175-0.245-0.49-0.07-0.704l4.439-5.43l0.276-0.171L39.937,0l0.34,0.043l8.832,4.56l0.234,0.259l3.782,9.453
				l-0.003,0.379l-4.687,11.09L27.022,48.052C26.925,48.154,26.793,48.205,26.662,48.205z"/>
		</g>
		<g>
			<polyline fill="#412F3F" points="26.464,7.958 22.025,2.508 13.079,0.488 4.247,5.047 0.464,14.501 5.051,25.437 26.662,47.705 
							"/>
			<path fill="#412F3F" d="M26.662,48.205c-0.131,0-0.261-0.051-0.358-0.152L4.692,25.786L4.59,25.631L0.003,14.694L0,14.315
				l3.783-9.453l0.234-0.259l8.832-4.56L13.189,0l8.946,2.02l0.277,0.172l4.438,5.451c0.175,0.214,0.143,0.529-0.072,0.704
				c-0.214,0.174-0.528,0.143-0.703-0.072l-4.329-5.317l-8.601-1.941L4.642,5.406l-3.638,9.09l4.472,10.661l21.545,22.2
				c0.192,0.198,0.188,0.515-0.01,0.707C26.913,48.158,26.788,48.205,26.662,48.205z"/>
		</g>
	</g>
	<g>
		<rect x="26.004" y="7.978" fill="#412F3F" width="1.659" height="37.884"/>
		<path fill="#412F3F" d="M27.662,46.362h-1.658l-0.5-0.5V7.978l0.5-0.5h1.658l0.5,0.5v37.884L27.662,46.362z M26.504,45.362h0.658
			V8.478h-0.658V45.362z"/>
	</g>
</g>
</svg>
