<?xml version="1.0" encoding="utf-8"?>
<!-- Generator: Adobe Illustrator 16.0.0, SVG Export Plug-In . SVG Version: 6.00 Build 0)  -->
<!DOCTYPE svg PUBLIC "-//W3C//DTD SVG 1.1//EN" "http://www.w3.org/Graphics/SVG/1.1/DTD/svg11.dtd">
<svg version="1.1" id="Calque_1" xmlns="http://www.w3.org/2000/svg" xmlns:xlink="http://www.w3.org/1999/xlink" x="0px" y="0px"
	 width="90.044px" height="90.044px" viewBox="0 0 90.044 90.044" enable-background="new 0 0 90.044 90.044" xml:space="preserve">
<rect x="72.567" y="7.694" transform="matrix(0.7166 0.6975 -0.6975 0.7166 30.1803 -47.1164)" fill="#F5F2E8" width="0.999" height="11.769"/>
<rect x="14.815" y="67.694" transform="matrix(0.7163 0.6978 -0.6978 0.7163 55.6846 10.1862)" fill="#F5F2E8" width="0.999" height="11.768"/>
<rect x="9.508" y="15.261" transform="matrix(0.7161 0.698 -0.698 0.7161 15.3711 -6.2687)" fill="#F5F2E8" width="11.768" height="1.001"/>
<rect x="69.507" y="73.014" transform="matrix(0.7161 0.698 -0.698 0.7161 72.7238 -31.7525)" fill="#F5F2E8" width="11.768" height="1.001"/>
<rect x="44.096" y="0.006" transform="matrix(0.9999 -0.0127 0.0127 0.9999 -0.0712 0.5666)" fill="#F5F2E8" width="1" height="11.768"/>
<rect x="38.788" y="83.654" transform="matrix(-0.0127 -0.9999 0.9999 -0.0127 -38.9058 129.8943)" fill="#F5F2E8" width="11.768" height="1"/>
<rect x="5.39" y="38.679" transform="matrix(-0.0132 -0.9999 0.9999 -0.0132 -38.5916 51.0398)" fill="#F5F2E8" width="1" height="11.768"/>
<rect x="83.653" y="37.091" transform="matrix(-0.0137 -0.9999 0.9999 -0.0137 42.3336 127.7071)" fill="#F5F2E8" width="1" height="11.767"/>
<path fill="#F5F2E8" d="M51.654,70.695H37.691l-12.093-6.982L18.616,51.62V37.657l6.982-12.092l12.093-6.983h13.963l12.093,6.983
	l6.982,12.092V51.62l-6.982,12.093L51.654,70.695z M37.973,69.641h13.398l11.603-6.699l6.7-11.604V37.939l-6.7-11.604l-11.603-6.699
	H37.973L26.37,26.335l-6.7,11.604v13.397l6.7,11.604L37.973,69.641z"/>
</svg>
