<?xml version="1.0" encoding="utf-8"?>
<!-- Generator: Adobe Illustrator 17.0.2, SVG Export Plug-In . SVG Version: 6.00 Build 0)  -->
<!DOCTYPE svg PUBLIC "-//W3C//DTD SVG 1.1//EN" "http://www.w3.org/Graphics/SVG/1.1/DTD/svg11.dtd">
<svg version="1.1" id="Calque_1" xmlns="http://www.w3.org/2000/svg" xmlns:xlink="http://www.w3.org/1999/xlink" x="0px" y="0px"
	 width="56.024px" height="64.558px" viewBox="0 0 56.024 64.558" enable-background="new 0 0 56.024 64.558" xml:space="preserve">
<g>
	<path fill="#412F3F" d="M12.979,64.558l-8.112-0.67l-0.336-0.17l-4.435-5.102L0,58.125l2.661-7.75l0.259-0.29l7.12-3.379
		l0.267-0.045l5.703,0.604l0.013-39.578l0.409-0.492L55.433,0l0.591,0.492V48.01l-0.042,0.202l-2.47,5.604L53.3,54.049l-6.229,3.522
		l-0.305,0.062l-8.84-1.048l-0.37-0.24l-3.898-6.51l-0.018-0.481l3.129-6.222l0.255-0.237l7.752-3.219l0.26-0.034l4.654,0.638
		V19.153l-27.526,5.24l-0.033,29.752l-2.596,6.754l-0.225,0.258l-6.049,3.339L12.979,64.558z M5.152,62.908l7.759,0.641l5.757-3.178
		l2.497-6.498V23.979l0.406-0.491l28.526-5.431l0.594,0.491v22.303l-0.568,0.496l-5.088-0.698l-7.455,3.096l-2.922,5.811
		l3.631,6.063l8.434,1l5.941-3.36l2.36-5.355V1.092L17.022,8.103L17.009,47.82l-0.553,0.497l-6.116-0.647l-6.802,3.228L1.04,58.177
		L5.152,62.908z"/>
</g>
</svg>
