<?xml version="1.0" encoding="utf-8"?>
<!-- Generator: Adobe Illustrator 17.0.2, SVG Export Plug-In . SVG Version: 6.00 Build 0)  -->
<!DOCTYPE svg PUBLIC "-//W3C//DTD SVG 1.1//EN" "http://www.w3.org/Graphics/SVG/1.1/DTD/svg11.dtd">
<svg version="1.1" id="Calque_1" xmlns="http://www.w3.org/2000/svg" xmlns:xlink="http://www.w3.org/1999/xlink" x="0px" y="0px"
	 width="11.821px" height="18px" viewBox="0 0 11.821 18" enable-background="new 0 0 11.821 18" xml:space="preserve">
<path fill="#412F3F" d="M2.821,16.589C2.821,17.368,2.19,18,1.411,18l0,0C0.632,18,0,17.368,0,16.589V1.411C0,0.632,0.632,0,1.411,0
	l0,0C2.19,0,2.821,0.632,2.821,1.411V16.589z"/>
<path fill="#412F3F" d="M11.821,16.589c0,0.779-0.632,1.411-1.411,1.411l0,0C9.632,18,9,17.368,9,16.589V1.411
	C9,0.632,9.632,0,10.411,0l0,0c0.779,0,1.411,0.632,1.411,1.411V16.589z"/>
</svg>
