<?xml version="1.0" encoding="utf-8"?>
<!-- Generator: Adobe Illustrator 17.0.2, SVG Export Plug-In . SVG Version: 6.00 Build 0)  -->
<!DOCTYPE svg PUBLIC "-//W3C//DTD SVG 1.1//EN" "http://www.w3.org/Graphics/SVG/1.1/DTD/svg11.dtd">
<svg version="1.1" id="Calque_1" xmlns="http://www.w3.org/2000/svg" xmlns:xlink="http://www.w3.org/1999/xlink" x="0px" y="0px"
	 width="72.125px" height="55.847px" viewBox="0 0 72.125 55.847" enable-background="new 0 0 72.125 55.847" xml:space="preserve">
<g>
	<path fill="#412F3F" d="M68.5,55.847H3.833l-0.339-0.133l-3.333-3.083L0,52.264V10.347l0.128-0.335L3.17,6.637l0.372-0.165h6.547
		l0.067-5.978L10.657,0h7.317l0.5,0.501l-0.016,5.97h49.375l0.346,0.139l3.791,3.625l0.154,0.361V52.18l-0.145,0.351l-3.125,3.167
		L68.5,55.847z M4.028,54.847h64.262l2.834-2.872V10.811l-3.491-3.339H17.958l-0.5-0.501L17.473,1h-6.322l-0.067,5.978l-0.5,0.494
		H3.765L1,10.539v41.506L4.028,54.847z"/>
</g>
<g>
	<g>
		<path fill="#412F3F" d="M38.922,42.064h-5.62l-0.354-0.146l-3.975-3.975l-0.146-0.354v-6.431l0.151-0.358l3.975-3.875l0.349-0.142
			h5.621l0.354,0.147l3.975,4l0.146,0.353v6.305l-0.146,0.354l-3.976,3.976L38.922,42.064z M33.509,41.064h5.206l3.683-3.683V31.49
			l-3.683-3.706h-5.21l-3.678,3.586v6.013L33.509,41.064z"/>
	</g>
	<g>
		<path fill="#412F3F" d="M68.5,55.847H3.833l-0.339-0.133l-3.333-3.083L0,52.264V24.222l0.5-0.5h24.753l4.025-3.861l0.346-0.139
			H42.5l0.339,0.132l4.2,3.868h24.586l0.5,0.5V52.18l-0.145,0.351l-3.125,3.167L68.5,55.847z M4.028,54.847h64.262l2.834-2.872
			V24.722h-23l2.112,1.945l0.161,0.368v13.455l-0.146,0.354l-8.075,8.075l-0.354,0.146h-11.42l-0.354-0.146l-8.075-8.076
			l-0.146-0.354V27.222l0.154-0.361l2.229-2.139H1v27.323L4.028,54.847z M30.61,48.064h11.006l7.782-7.782V27.253l-7.094-6.532
			H29.826l-6.998,6.713v12.846L30.61,48.064z"/>
	</g>
</g>
</svg>
