<?xml version="1.0" encoding="utf-8"?>
<!-- Generator: Adobe Illustrator 16.0.0, SVG Export Plug-In . SVG Version: 6.00 Build 0)  -->
<!DOCTYPE svg PUBLIC "-//W3C//DTD SVG 1.1//EN" "http://www.w3.org/Graphics/SVG/1.1/DTD/svg11.dtd">
<svg version="1.1" id="Calque_1" xmlns="http://www.w3.org/2000/svg" xmlns:xlink="http://www.w3.org/1999/xlink" x="0px" y="0px"
	 width="109.192px" height="69.536px" viewBox="0 0 109.192 69.536" enable-background="new 0 0 109.192 69.536"
	 xml:space="preserve">
<path fill="#F5BE49" d="M26.836,23.851l8.735-7.269l7.552-3.038l11.766,0.981l9.477,5.864l7.156,9.747l0.288,0.19l11.422,2.699
	l8.907,8.281l2.9,10.624l-2.675,11.564l-9.69,5.042H14.667l-9.878-5.02l-3.784-9.963l2.763-8.646L12.287,39l0.211-0.478
	l-1.051-7.835l3.443-5.531l5.209-2.288l6.332,1.091L26.836,23.851z M42.86,12.572l-7.736,3.11l-8.75,7.251l-6.253-1.077
	l-0.287,0.036l-5.489,2.411l-0.223,0.194l-3.619,5.814l-0.071,0.331l1.034,7.711l-8.409,5.829l-0.19,0.259L0,53.415l0.009,0.329
	l3.914,10.308l0.241,0.268l10.156,5.162l0.227,0.055h68.25l0.23-0.057l10.003-5.205l0.256-0.331l2.756-11.911l-0.005-0.244
	l-2.972-10.884l-0.143-0.235l-9.107-8.466l-0.225-0.121L72.22,29.396l-7.106-9.678l-9.8-6.106l-0.221-0.073l-12.005-1L42.86,12.572z
	"/>
<polygon fill="#F5BE49" points="74.928,0 74.678,0.067 62.318,7.203 56.281,14.729 57.063,15.35 62.9,8.021 75.062,1 89.064,1 
	101.19,8.002 108.192,20.128 108.192,34.131 101.208,46.229 94.685,48.984 95.073,49.906 101.752,47.084 101.989,46.874 
	109.126,34.514 109.192,34.264 109.192,19.993 109.126,19.744 101.989,7.385 101.807,7.203 89.448,0.067 89.197,0 "/>
</svg>
