<?xml version="1.0" encoding="utf-8"?>
<!-- Generator: Adobe Illustrator 17.0.2, SVG Export Plug-In . SVG Version: 6.00 Build 0)  -->
<!DOCTYPE svg PUBLIC "-//W3C//DTD SVG 1.1//EN" "http://www.w3.org/Graphics/SVG/1.1/DTD/svg11.dtd">
<svg version="1.1" id="Calque_1" xmlns="http://www.w3.org/2000/svg" xmlns:xlink="http://www.w3.org/1999/xlink" x="0px" y="0px"
	 width="53.814px" height="60.417px" viewBox="0 0 53.814 60.417" enable-background="new 0 0 53.814 60.417" xml:space="preserve">
<g>
	<path fill="#412F3F" d="M36.81,60.417H17.005l-0.5-0.5v-6.602l0.5-0.5h4.451V7.74H7.602v5.963l-0.5,0.5H0.5l-0.5-0.5V4.319
		l0.156-0.363l4.037-3.819L4.537,0h44.773l0.342,0.135l4.004,3.75l0.158,0.365v9.453l-0.5,0.5h-6.602l-0.5-0.5V7.602H32.358v45.213
		h4.451l0.5,0.5v6.602L36.81,60.417z M17.505,59.417H36.31v-5.602h-4.451l-0.5-0.5V7.102l0.5-0.5h14.854l0.5,0.5v6.102h5.602V4.467
		L49.113,1H4.736L1,4.535v8.669h5.602V7.24l0.5-0.5h14.854l0.5,0.5v46.075l-0.5,0.5h-4.451V59.417z"/>
</g>
</svg>
